<svg width="400" height="265" xmlns="http://www.w3.org/2000/svg" xml:space="preserve" enable-background="new 0 0 400 265" version="1.1">

 <g>
  <title>Layer 1</title>
  <rect height="265" width="400" fill="#e8e5ec" id="XMLID_60_"/>
  <path id="svg_7" d="m270.8,91.7c-4.4,-7.3 -8.8,-8.5 -17.5,-9.1s-31.9,-0.6 -51.3,-0.6c-19.4,0 -42.5,0 -51.3,0.6c-8.8,0.6 -13.1,1.8 -17.5,9.1s-6.3,18.8 -6.3,40.6l0,0l0,0l0,0c0,21.2 1.9,33.3 6.3,40c4.4,7.3 8.8,8.5 17.5,9.1c8.8,0.6 31.9,0.6 51.3,0.6c19.4,0 41.9,0 51.3,-0.6c8.8,-0.6 13.1,-1.8 17.5,-9.1c4.4,-6.7 6.3,-19.4 6.3,-40l0,0l0,0c-0.1,-21.2 -2,-33.3 -6.3,-40.6z" enable-background="new    " fill="#333333" opacity="0.8"/>
  <path id="svg_8" d="m183.3,159.6l0,-54.6l46.9,27.3l-46.9,27.3z" fill="#FFFFFF"/>
 </g>
</svg>